<?xml version="1.0" encoding="UTF-8"?>
<svg width="200" height="200" viewBox="0 0 200 200" fill="none" xmlns="http://www.w3.org/2000/svg">
  <!-- Coffee Cup -->
  <path d="M60 80C60 60 80 40 100 40C120 40 140 60 140 80V100C140 120 120 140 100 140C80 140 60 120 60 100V80Z" fill="#E0E0E0"/>
  <path d="M140 100C140 120 120 140 100 140C80 140 60 120 60 100" stroke="#BDBDBD" stroke-width="4"/>
  
  <!-- Steam -->
  <path d="M90 30C90 30 85 20 90 10C95 0 100 10 100 10" stroke="#BDBDBD" stroke-width="2" stroke-linecap="round"/>
  <path d="M100 30C100 30 95 15 100 5C105 -5 110 5 110 5" stroke="#BDBDBD" stroke-width="2" stroke-linecap="round"/>
  <path d="M110 30C110 30 105 20 110 10C115 0 120 10 120 10" stroke="#BDBDBD" stroke-width="2" stroke-linecap="round"/>
  
  <!-- Handle -->
  <path d="M140 90C150 90 160 100 160 110C160 120 150 130 140 130" stroke="#BDBDBD" stroke-width="4" stroke-linecap="round"/>
  
  <!-- Saucer -->
  <path d="M50 140C50 140 70 160 100 160C130 160 150 140 150 140" stroke="#BDBDBD" stroke-width="4" stroke-linecap="round"/>
  
  <!-- Zzz -->
  <path d="M70 180C70 180 75 175 80 180C85 185 80 190 80 190" stroke="#BDBDBD" stroke-width="2" stroke-linecap="round"/>
  <path d="M90 175C90 175 95 170 100 175C105 180 100 185 100 185" stroke="#BDBDBD" stroke-width="2" stroke-linecap="round"/>
  <path d="M110 170C110 170 115 165 120 170C125 175 120 180 120 180" stroke="#BDBDBD" stroke-width="2" stroke-linecap="round"/>
</svg> 